<svg data-v-423bf9ae="" xmlns="http://www.w3.org/2000/svg" viewBox="0 0 387 112" class="iconLeft"><!----><!----><!----><g data-v-423bf9ae="" id="06c99499-fc95-4dc4-a47e-4c4493dc3ff7" fill="#213210" transform="matrix(3.925159967842349,0,0,3.925159967842349,128.4812783378992,17.11647963508362)"><path d="M0.67 10.80L0.67 10.80L0.68 10.60Q0.75 8.56 1.71 6.74L1.71 6.74Q2.59 5.08 3.93 4.05L3.93 4.05Q5.26 3.04 6.51 3.04L6.51 3.04Q7.47 3.04 8.03 3.71L8.03 3.71Q8.50 4.28 8.50 5.11L8.50 5.11Q8.50 6.11 7.77 7.08L7.77 7.08Q7.34 7.64 6.86 7.89L6.86 7.89Q6.64 8.01 6.44 8.01Q6.25 8.01 6.08 7.93Q5.92 7.85 5.80 7.72L5.80 7.72Q5.54 7.46 5.54 7.25Q5.54 7.03 5.65 6.95L5.65 6.95Q6.77 6.15 7.18 5.29L7.18 5.29Q7.33 4.96 7.33 4.65L7.33 4.65Q7.33 3.99 6.71 3.99L6.71 3.99Q5.72 3.99 4.68 5.06L4.68 5.06Q3.70 6.05 3.04 7.55L3.04 7.55Q2.34 9.08 2.30 10.37L2.30 10.37L2.30 10.63Q2.30 12.17 2.95 12.65L2.95 12.65Q3.18 12.82 3.50 12.82Q3.83 12.82 4.12 12.74Q4.40 12.65 4.69 12.51L4.69 12.51Q5.15 12.27 5.88 11.68L5.88 11.68Q6.10 11.51 6.24 11.73L6.24 11.73Q6.36 11.91 6.36 12.14L6.36 12.14Q6.36 12.53 6.26 12.67Q6.15 12.81 5.90 13.00Q5.64 13.19 5.27 13.36L5.27 13.36Q4.41 13.74 3.58 13.74Q2.75 13.74 2.25 13.54Q1.74 13.34 1.39 12.96L1.39 12.96Q0.67 12.17 0.67 10.80ZM8.59 13.21Q8.31 12.93 8.14 12.51Q7.98 12.09 7.97 11.52Q7.96 10.94 8.11 10.36Q8.26 9.77 8.53 9.22Q8.80 8.67 9.18 8.20Q9.56 7.72 10.01 7.36L10.01 7.36Q11.01 6.60 12.09 6.60L12.09 6.60Q13.49 6.60 13.99 7.83L13.99 7.83Q14.35 8.73 14.03 10.00L14.03 10.00Q13.75 11.17 12.98 12.15L12.98 12.15Q12.22 13.13 11.19 13.54L11.19 13.54Q10.67 13.74 10.17 13.74Q9.67 13.74 9.27 13.61Q8.88 13.48 8.59 13.21ZM9.90 9.89Q9.69 10.40 9.57 10.93Q9.45 11.46 9.46 11.94Q9.47 12.41 9.61 12.68Q9.75 12.95 10.06 12.95Q10.38 12.95 10.68 12.74Q10.99 12.52 11.27 12.17Q11.56 11.81 11.81 11.35Q12.07 10.88 12.26 10.38L12.26 10.38Q12.67 9.28 12.66 8.42L12.66 8.42Q12.66 7.67 12.35 7.46L12.35 7.46Q12.23 7.38 12.01 7.38Q11.79 7.38 11.50 7.58Q11.21 7.79 10.92 8.13Q10.64 8.47 10.37 8.93Q10.10 9.39 9.90 9.89ZM20.09 7.89L20.09 7.89Q19.88 7.89 19.49 8.30Q19.10 8.70 18.81 9.04L18.81 9.04L18.23 9.73L17.11 11.16Q16.71 11.92 16.49 12.41L16.49 12.41L16.12 13.21Q15.98 13.50 15.87 13.62Q15.76 13.74 15.58 13.74Q15.40 13.74 15.23 13.68Q15.07 13.61 14.94 13.51L14.94 13.51Q14.68 13.29 14.68 13.03L14.68 13.03Q14.68 12.93 14.83 12.63L14.83 12.63L15.09 12.07Q15.22 11.83 15.38 11.44L15.38 11.44L15.76 10.51Q16.57 8.49 16.57 7.90L16.57 7.90Q16.57 7.59 16.37 7.44L16.37 7.44L16.23 7.34Q16.16 7.29 16.16 7.17Q16.16 7.05 16.25 6.95Q16.34 6.84 16.50 6.75L16.50 6.75Q16.80 6.60 17.11 6.60Q17.42 6.60 17.60 6.67Q17.77 6.73 17.88 6.85L17.88 6.85Q18.14 7.09 18.14 7.35Q18.14 7.61 18.07 7.87Q18.01 8.13 17.91 8.40Q17.81 8.67 17.70 8.93Q17.59 9.19 17.50 9.39L17.50 9.39L17.36 9.68Q17.31 9.79 17.34 9.75L17.34 9.75Q18.09 8.70 18.33 8.39L18.33 8.39L18.81 7.82Q19.34 7.21 19.64 7.01L19.64 7.01Q20.25 6.60 20.60 6.60Q20.95 6.60 21.18 6.69Q21.42 6.77 21.60 6.94L21.60 6.94Q21.98 7.29 21.98 7.83Q21.98 8.37 21.73 8.96Q21.49 9.54 21.30 9.91Q21.12 10.27 20.96 10.65L20.96 10.65Q20.45 11.79 20.45 12.31L20.45 12.31Q20.45 12.54 20.82 12.54L20.82 12.54Q21.10 12.54 21.34 12.42Q21.57 12.30 21.64 12.30L21.64 12.30Q21.79 12.30 21.79 12.44L21.79 12.44Q21.79 13.05 21.16 13.46L21.16 13.46Q20.75 13.74 20.40 13.74Q20.05 13.74 19.82 13.67Q19.59 13.59 19.41 13.43L19.41 13.43Q19.01 13.06 19.01 12.41L19.01 12.41Q19.01 11.62 19.51 10.43L19.51 10.43Q19.87 9.62 20.02 9.32L20.02 9.32L20.25 8.83Q20.47 8.39 20.47 8.14Q20.47 7.89 20.09 7.89ZM27.95 7.89L27.95 7.89Q27.73 7.89 27.34 8.30Q26.95 8.70 26.67 9.04L26.67 9.04L26.09 9.73L24.96 11.16Q24.57 11.92 24.34 12.41L24.34 12.41L23.97 13.21Q23.83 13.50 23.72 13.62Q23.62 13.74 23.44 13.74Q23.26 13.74 23.09 13.68Q22.92 13.61 22.80 13.51L22.80 13.51Q22.54 13.29 22.54 13.03L22.54 13.03Q22.54 12.93 22.69 12.63L22.69 12.63L22.95 12.07Q23.07 11.83 23.24 11.44L23.24 11.44L23.62 10.51Q24.42 8.49 24.42 7.90L24.42 7.90Q24.42 7.59 24.22 7.44L24.22 7.44L24.08 7.34Q24.01 7.29 24.01 7.17Q24.01 7.05 24.11 6.95Q24.20 6.84 24.35 6.75L24.35 6.75Q24.66 6.60 24.97 6.60Q25.28 6.60 25.45 6.67Q25.62 6.73 25.74 6.85L25.74 6.85Q25.99 7.09 25.99 7.35Q25.99 7.61 25.93 7.87Q25.86 8.13 25.76 8.40Q25.66 8.67 25.55 8.93Q25.44 9.19 25.35 9.39L25.35 9.39L25.22 9.68Q25.16 9.79 25.19 9.75L25.19 9.75Q25.95 8.70 26.19 8.39L26.19 8.39L26.67 7.82Q27.19 7.21 27.49 7.01L27.49 7.01Q28.10 6.60 28.45 6.60Q28.80 6.60 29.04 6.69Q29.28 6.77 29.46 6.94L29.46 6.94Q29.83 7.29 29.83 7.83Q29.83 8.37 29.59 8.96Q29.34 9.54 29.16 9.91Q28.98 10.27 28.81 10.65L28.81 10.65Q28.30 11.79 28.30 12.31L28.30 12.31Q28.30 12.54 28.67 12.54L28.67 12.54Q28.96 12.54 29.19 12.42Q29.43 12.30 29.50 12.30L29.50 12.30Q29.64 12.30 29.64 12.44L29.64 12.44Q29.64 13.05 29.02 13.46L29.02 13.46Q28.60 13.74 28.25 13.74Q27.90 13.74 27.68 13.67Q27.45 13.59 27.27 13.43L27.27 13.43Q26.87 13.06 26.87 12.41L26.87 12.41Q26.87 11.62 27.36 10.43L27.36 10.43Q27.73 9.62 27.88 9.32L27.88 9.32L28.11 8.83Q28.32 8.39 28.32 8.14Q28.32 7.89 27.95 7.89ZM30.90 11.28L30.90 11.28Q30.93 10.68 31.10 10.14Q31.27 9.60 31.55 9.09Q31.84 8.58 32.23 8.12Q32.61 7.67 33.07 7.33L33.07 7.33Q34.04 6.60 35.04 6.60L35.04 6.60Q36.21 6.60 36.60 7.56L36.60 7.56Q36.74 7.89 36.73 8.34Q36.72 8.78 36.56 9.16Q36.39 9.54 36.10 9.85Q35.81 10.17 35.41 10.41Q35.01 10.66 34.54 10.83L34.54 10.83Q33.57 11.17 32.46 11.18L32.46 11.18Q32.44 11.28 32.43 11.47Q32.42 11.66 32.47 11.90Q32.52 12.13 32.63 12.32L32.63 12.32Q32.88 12.73 33.35 12.73L33.35 12.73Q34.14 12.73 34.89 12.26L34.89 12.26Q35.16 12.11 35.32 11.94Q35.49 11.77 35.62 11.77Q35.74 11.77 35.83 11.92Q35.92 12.07 35.92 12.25L35.92 12.25Q35.92 12.61 35.72 12.88L35.72 12.88Q34.86 13.74 33.15 13.74L33.15 13.74Q32.15 13.74 31.54 13.14L31.54 13.14Q30.86 12.46 30.90 11.28ZM34.89 7.51L34.89 7.51Q34.17 7.51 33.51 8.49L33.51 8.49Q32.95 9.34 32.61 10.50L32.61 10.50Q33.75 10.38 34.59 9.60L34.59 9.60Q35.36 8.86 35.36 8.18Q35.36 7.51 34.89 7.51ZM37.42 11.31L37.42 11.31Q37.43 10.72 37.61 10.13Q37.78 9.54 38.07 9.01Q38.36 8.48 38.76 8.04Q39.16 7.59 39.63 7.27L39.63 7.27Q40.62 6.60 41.71 6.60L41.71 6.60Q42.83 6.60 43.23 7.49L43.23 7.49Q43.37 7.81 43.36 8.22Q43.35 8.63 43.23 8.97Q43.11 9.30 42.92 9.57L42.92 9.57Q42.51 10.17 42.08 10.17L42.08 10.17Q41.61 10.17 41.38 9.91L41.38 9.91Q41.19 9.69 41.26 9.39L41.26 9.39Q41.28 9.30 41.38 9.23Q41.49 9.15 41.64 9.00L41.64 9.00Q42.09 8.53 42.11 7.91L42.11 7.91Q42.12 7.49 41.59 7.49L41.59 7.49Q41.02 7.49 40.39 8.13L40.39 8.13Q39.47 9.06 39.09 10.53L39.09 10.53Q38.77 11.80 39.22 12.39L39.22 12.39Q39.48 12.73 39.94 12.73L39.94 12.73Q40.71 12.73 41.43 12.18L41.43 12.18Q41.65 12.01 41.79 11.83Q41.92 11.66 42.04 11.66Q42.16 11.66 42.24 11.77Q42.31 11.88 42.31 12.06L42.31 12.06Q42.31 12.46 41.95 12.85L41.95 12.85Q41.02 13.74 39.72 13.74L39.72 13.74Q38.60 13.74 37.99 13.10L37.99 13.10Q37.39 12.48 37.42 11.31ZM47.62 11.88L47.62 11.88Q47.82 11.88 47.82 12.15L47.82 12.15Q47.82 12.37 47.68 12.58L47.68 12.58Q47.50 12.98 46.94 13.34L46.94 13.34Q46.31 13.74 45.68 13.74L45.68 13.74Q44.58 13.74 44.28 12.76L44.28 12.76Q43.93 11.59 45.33 7.80L45.33 7.80Q44.54 7.73 44.47 7.53L44.47 7.53Q44.45 7.46 44.45 7.39Q44.45 7.32 44.52 7.23Q44.58 7.13 44.69 7.04L44.69 7.04Q44.93 6.84 45.17 6.84L45.17 6.84L45.71 6.84Q46.45 5.11 46.76 4.87L46.76 4.87Q46.92 4.76 47.10 4.76Q47.28 4.76 47.41 4.81Q47.53 4.86 47.63 4.95L47.63 4.95Q47.84 5.15 47.84 5.41L47.84 5.41Q47.84 5.54 47.76 5.72L47.76 5.72L47.26 6.82L47.42 6.82Q47.84 6.82 48.10 6.82L48.10 6.82Q48.10 6.82 48.49 6.81L48.49 6.81Q48.62 6.80 48.82 6.80Q49.01 6.80 49.01 6.95L49.01 6.95Q49.01 7.85 46.88 7.85L46.88 7.85L46.83 7.85L46.36 9.05Q45.58 11.18 45.58 12.04L45.58 12.04Q45.58 12.28 45.68 12.41Q45.79 12.54 46.09 12.54Q46.40 12.54 46.64 12.44Q46.89 12.34 47.07 12.21Q47.26 12.09 47.39 11.98Q47.52 11.88 47.62 11.88ZM52.71 4.99Q52.55 5.15 52.36 5.25Q52.17 5.35 51.96 5.38Q51.75 5.40 51.56 5.31Q51.37 5.22 51.24 5.06L51.24 5.06Q50.94 4.72 50.94 4.37Q50.94 4.02 51.05 3.85Q51.17 3.67 51.34 3.56L51.34 3.56Q51.67 3.35 51.96 3.35Q52.25 3.35 52.41 3.39Q52.57 3.43 52.71 3.53L52.71 3.53Q53.04 3.75 53.04 4.08Q53.04 4.40 52.95 4.62Q52.86 4.83 52.71 4.99ZM51.30 12.39L51.30 12.39Q51.48 12.39 51.48 12.63L51.48 12.63Q51.48 12.93 51.20 13.26L51.20 13.26Q50.79 13.74 50.10 13.74L50.10 13.74Q49.31 13.74 49.01 13.10L49.01 13.10Q48.90 12.87 48.90 12.55Q48.90 12.23 49.02 11.84Q49.13 11.44 49.30 11.01Q49.46 10.58 49.66 10.13L49.66 10.13L50.03 9.27Q50.42 8.31 50.42 8.00Q50.42 7.69 50.36 7.59Q50.29 7.49 50.22 7.44L50.22 7.44L50.08 7.34Q50.01 7.29 50.01 7.17Q50.01 7.05 50.10 6.95Q50.20 6.84 50.35 6.75L50.35 6.75Q50.65 6.60 51.06 6.60L51.06 6.60Q52.07 6.60 52.07 7.12L52.07 7.12Q52.07 7.74 51.75 8.53Q51.43 9.32 51.20 9.80L51.20 9.80L50.79 10.75Q50.34 11.79 50.34 12.24L50.34 12.24Q50.34 12.54 50.64 12.54L50.64 12.54Q50.93 12.54 51.08 12.47Q51.24 12.39 51.30 12.39ZM52.25 15.18L52.25 15.18Q52.25 15.03 52.46 14.60Q52.68 14.18 52.93 13.51Q53.19 12.85 53.42 12.13Q53.66 11.42 53.89 10.60L53.89 10.60L54.43 8.79L53.72 8.98Q53.45 8.98 53.28 8.70L53.28 8.70Q53.24 8.63 53.24 8.52Q53.24 8.42 53.40 8.28Q53.57 8.14 53.81 8.02L53.81 8.02Q54.28 7.77 54.79 7.64L54.79 7.64L54.85 7.45Q55.04 6.88 55.20 6.26Q55.37 5.64 55.56 5.05Q55.75 4.46 55.99 3.93Q56.23 3.40 56.55 3.01L56.55 3.01Q57.26 2.15 58.33 2.15L58.33 2.15Q59.12 2.15 59.59 2.57Q60.05 2.99 60.05 3.72L60.05 3.72Q60.05 4.47 59.62 5.02L59.62 5.02Q59.26 5.48 58.82 5.48L58.82 5.48Q58.26 5.48 58.06 4.98L58.06 4.98Q58.01 4.85 58.01 4.76L58.01 4.76Q58.01 4.61 58.21 4.48L58.21 4.48Q58.59 4.20 58.74 3.72L58.74 3.72Q58.79 3.57 58.79 3.42L58.79 3.42Q58.79 2.86 58.35 2.86L58.35 2.86Q57.75 2.86 57.24 4.22L57.24 4.22Q57.09 4.64 56.94 5.14L56.94 5.14L56.30 7.32Q56.92 7.23 57.21 7.23Q57.49 7.23 57.71 7.29Q57.93 7.36 58.11 7.47L58.11 7.47Q58.51 7.74 58.51 8.13Q58.51 8.52 58.13 8.52L58.13 8.52L57.26 8.48Q56.55 8.48 55.95 8.54L55.95 8.54L55.38 10.53Q54.83 12.54 54.49 13.46Q54.14 14.38 53.81 15.01L53.81 15.01Q53.50 15.59 52.88 15.59Q52.25 15.59 52.25 15.18ZM58.52 13.01L58.52 13.01Q58.43 12.78 58.43 12.49Q58.43 12.20 58.53 11.84Q58.63 11.48 58.79 11.09Q58.95 10.71 59.13 10.29L59.13 10.29L59.50 9.47Q60.21 7.90 60.03 7.60L60.03 7.60Q59.94 7.47 59.72 7.34L59.72 7.34Q59.64 7.29 59.64 7.17Q59.64 7.05 59.74 6.95Q59.83 6.84 59.99 6.75L59.99 6.75Q60.33 6.60 60.66 6.60Q61.00 6.60 61.17 6.67Q61.35 6.74 61.46 6.85L61.46 6.85Q61.68 7.08 61.68 7.35Q61.68 7.62 61.59 7.96Q61.50 8.30 61.36 8.70Q61.22 9.09 61.04 9.52L61.04 9.52Q60.57 10.62 60.41 10.98L60.41 10.98L60.16 11.50Q59.94 11.98 59.94 12.17Q59.94 12.36 60.01 12.44Q60.07 12.52 60.23 12.52Q60.39 12.52 60.58 12.39Q60.78 12.27 61.00 12.07Q61.23 11.86 61.47 11.59Q61.71 11.32 61.95 11.03L61.95 11.03Q62.56 10.27 62.85 9.73L62.85 9.73Q64.33 7.01 64.42 6.89L64.42 6.89Q64.64 6.60 64.87 6.60Q65.10 6.60 65.27 6.65Q65.44 6.70 65.56 6.79L65.56 6.79Q65.84 6.99 65.73 7.24Q65.63 7.49 65.47 7.92L65.47 7.92Q64.18 11.68 63.79 12.61Q63.40 13.54 63.12 14.11Q62.83 14.67 62.44 15.24Q62.06 15.82 61.62 16.29L61.62 16.29Q60.62 17.36 59.75 17.43L59.75 17.43Q59.41 17.46 59.21 17.34L59.21 17.34Q58.87 17.13 58.87 16.95L58.87 16.95Q58.87 16.76 59.18 16.69Q59.49 16.62 59.82 16.40Q60.16 16.19 60.46 15.90L60.46 15.90Q61.37 15.04 61.87 14.03L61.87 14.03Q62.29 13.14 62.55 12.35L62.55 12.35L63.08 10.72Q62.88 10.96 62.64 11.28L62.64 11.28L62.15 11.94Q61.51 12.75 61.09 13.09L61.09 13.09Q60.28 13.74 59.64 13.74L59.64 13.74Q58.80 13.74 58.52 13.01Z"></path></g><defs data-v-423bf9ae=""><linearGradient data-v-423bf9ae="" gradientTransform="rotate(25)" id="ed5bc4d7-e915-4c2f-99af-e8bbc41fa5db" x1="0%" y1="0%" x2="100%" y2="0%"><stop data-v-423bf9ae="" offset="0%" style="stop-color: rgb(102, 108, 53); stop-opacity: 1;"></stop><stop data-v-423bf9ae="" offset="100%" style="stop-color: rgb(119, 214, 54); stop-opacity: 1;"></stop></linearGradient></defs><g data-v-423bf9ae="" id="0e673f63-a052-4252-b883-95f3a5a4ce84" transform="matrix(1.1111112806532117,0,0,1.1111112806532117,0.44443596733941604,0.4444274902330818)" stroke="none" fill="url(#ed5bc4d7-e915-4c2f-99af-e8bbc41fa5db)"><path d="M10.939 24.785H2.71c-1.49 0-2.71 1.209-2.71 2.687v48.363c0 1.478 1.22 2.687 2.71 2.687h11.583l18.508 21.011a1.36 1.36 0 001.027.467 1.35 1.35 0 001.354-1.344V78.521h19.58V65.265H20.924l-.423-.012-.511-.038-.504-.064-.5-.089-.491-.113-.481-.136-.469-.158-.461-.181-.45-.203-.431-.22-.421-.24-.409-.261-.393-.278-.378-.294-.36-.311-.35-.33-.332-.347-.313-.357-.297-.375-.28-.39-.263-.405-.242-.416-.222-.428-.205-.446-.182-.457-.16-.465-.137-.478-.114-.485-.09-.496-.065-.501-.039-.506-.011-.419V24.785h-.001z"></path><path d="M21.017 0h76.049C98.679 0 100 1.309 100 2.909v52.364c0 1.601-1.321 2.909-2.935 2.909H84.523l-20.038 22.75h-.001c-.27.31-.667.506-1.111.506a1.46 1.46 0 01-1.467-1.454v-.004h-.001V58.183H21.017c-1.614 0-2.935-1.309-2.935-2.909V2.909c0-1.6 1.32-2.909 2.935-2.909z"></path></g><!----></svg>